<?xml version="1.0" standalone="no"?>
<!DOCTYPE svg PUBLIC "-//W3C//DTD SVG 1.1//EN"
  "http://www.w3.org/Graphics/SVG/1.1/DTD/svg11.dtd">
<svg width="72.20000076293945mm" height="105.00099945068357mm" viewBox="-97 -43.99999999999999 72.20000076293945 105.00099945068357" xmlns="http://www.w3.org/2000/svg" version="1.1">
	<title>svgOutput</title>
	<desc>made with tinkercad</desc>
<path d="M -96 39.49999999999999 L -93.70099639892578 39.49999999999999 L -81.91999816894531 39.49999999999999 L -70.20099639892578 39.49999999999999 L -66.5009994506836 39.49999999999999 L -65.53600311279297 39.49999999999999 L -49.152000427246094 39.49999999999999 L -43.000999450683594 39.49999999999999 L -32.768001556396484 39.49999999999999 L -30 39.49999999999999 L -30 29.499999999999993 L -32.768001556396484 29.499999999999993 L -43.000999450683594 29.499999999999993 L -49.152000427246094 29.499999999999993 L -65.53600311279297 29.499999999999993 L -66.5009994506836 29.499999999999993 L -70.20099639892578 29.499999999999993 L -81.91999816894531 29.499999999999993 L -93.70099639892578 29.499999999999993 L -96 29.499999999999993 L -96 26.999999999999993 L -93.70099639892578 26.999999999999993 L -81.91999816894531 26.999999999999993 L -70.20099639892578 26.999999999999993 L -66.5009994506836 26.999999999999993 L -65.53600311279297 26.999999999999993 L -49.152000427246094 26.999999999999993 L -43.000999450683594 26.999999999999993 L -32.768001556396484 26.999999999999993 L -26 26.999999999999993 L -26 29.499999999999993 L -26 41.99999999999999 L -27.25 41.99999999999999 L -30 41.99999999999999 L -32.768001556396484 41.99999999999999 L -43.000999450683594 41.99999999999999 L -49.152000427246094 41.99999999999999 L -57.34400177001953 41.99999999999999 L -61.439998626708984 41.99999999999999 L -62.143245697021484 41.99999999999999 L -62.15724182128906 41.99999999999999 L -65.53600311279297 41.99999999999999 L -66.5009994506836 41.99999999999999 L -70.20099639892578 41.99999999999999 L -73.72799682617188 41.99999999999999 L -77.8239974975586 41.99999999999999 L -81.91999816894531 41.99999999999999 L -93.70099639892578 41.99999999999999 L -96 41.99999999999999 L -96 39.49999999999999 M -94.24500274658203 -21.82099914550781 L -93.70099639892578 -22.36499977111816 L -93.32099914550781 -22.745000839233395 L -92.25 -23.495000839233395 L -91.06500244140625 -24.048000335693352 L -90.11199951171875 -24.303039550781243 L -89.802001953125 -24.385999679565423 L -88.5 -24.499999999999993 L -87.197998046875 -24.385999679565423 L -86.01599884033203 -24.069677352905266 L -85.93499755859375 -24.048000335693352 L -84.75 -23.495000839233395 L -83.67900085449219 -22.745000839233395 L -82.75499725341797 -21.82099914550781 L -82.00499725341797 -20.749999999999996 L -81.91999816894531 -20.567857742309567 L -81.4520034790039 -19.565000534057614 L -81.11399841308594 -18.302000045776364 L -81 -16.999999999999996 L -81 -16.38400077819824 L -81 -9.600000381469725 L -81 -6.499999999999998 L -86 -6.499999999999998 L -86 -8.19200038909912 L -86 -8.499999999999998 L -86 -9.501999855041502 L -90.11199951171875 -9.501999855041502 L -91 -9.501999855041502 L -91 -8.499999999999998 L -91 -6.499999999999998 L -93.70099639892578 -6.499999999999998 L -96 -6.499999999999998 L -96 -9.600000381469725 L -96 -16.38400077819824 L -96 -16.999999999999996 L -95.88600158691406 -18.302000045776364 L -95.5479965209961 -19.565000534057614 L -95.12100219726562 -20.479999542236325 L -94.99500274658203 -20.749999999999996 L -94.24500274658203 -21.82099914550781 M -96 -42.99999999999999 L -93.70099639892578 -42.99999999999999 L -92.00199890136719 -42.99999999999999 L -92.00199890136719 -40.95999908447265 L -92.00199890136719 -38.00099945068359 L -90.11199951171875 -38.00099945068359 L -86.0009994506836 -38.00099945068359 L -86.0009994506836 -40.95999908447265 L -86.0009994506836 -42.99999999999999 L -85.68299865722656 -42.99999999999999 L -81.91999816894531 -42.99999999999999 L -70.20099639892578 -42.99999999999999 L -66.5009994506836 -42.99999999999999 L -65.53600311279297 -42.99999999999999 L -49.152000427246094 -42.99999999999999 L -43.000999450683594 -42.99999999999999 L -36 -42.99999999999999 L -35.85200119018555 -42.99999999999999 L -35.85200119018555 -40.95999908447265 L -35.85200119018555 -38.00099945068359 L -32.768001556396484 -38.00099945068359 L -29.85099983215332 -38.00099945068359 L -29.85099983215332 -40.95999908447265 L -29.85099983215332 -42.99999999999999 L -29.533000946044922 -42.99999999999999 L -26 -42.99999999999999 L -26 -40.95999908447265 L -26 -32.76800155639648 L -26 -27.999999999999993 L -28 -27.999999999999993 L -29.533000946044922 -27.999999999999993 L -29.85099983215332 -27.999999999999993 L -29.85099983215332 -32.76800155639648 L -29.85099983215332 -32.9990005493164 L -32.768001556396484 -32.9990005493164 L -35.85200119018555 -32.9990005493164 L -35.85200119018555 -32.76800155639648 L -35.85200119018555 -27.999999999999993 L -36 -27.999999999999993 L -43 -27.999999999999993 L -43.000999450683594 -27.999999999999993 L -45 -27.999999999999993 L -49.152000427246094 -27.999999999999993 L -60 -27.999999999999993 L -63 -27.999999999999993 L -65.53600311279297 -27.999999999999993 L -66.5009994506836 -27.999999999999993 L -70.20099639892578 -27.999999999999993 L -78 -27.999999999999993 L -81 -27.999999999999993 L -81.91999816894531 -27.999999999999993 L -85.68299865722656 -27.999999999999993 L -86.0009994506836 -27.999999999999993 L -86.0009994506836 -32.76800155639648 L -86.0009994506836 -32.9990005493164 L -90.11199951171875 -32.9990005493164 L -92.00199890136719 -32.9990005493164 L -92.00199890136719 -32.76800155639648 L -92.00199890136719 -27.999999999999993 L -93.70099639892578 -27.999999999999993 L -96 -27.999999999999993 L -96 -32.76800155639648 L -96 -40.95999908447265 L -96 -42.99999999999999 M -94.5943832397461 -0.867520987987518 L -94.55146026611328 -0.9192302823066708 L -94.5492935180664 -0.9211773276329037 L -94.46479797363281 -0.9969756007194516 L -93.94133758544922 -1.4432754516601558 L -93.85562133789062 -1.4960967302322383 L -93.70099639892578 -1.5908595323562618 L -93.2699966430664 -1.8550000190734859 L -93.16124725341797 -1.898125052452087 L -91.8592529296875 -2.320749998092651 L -91.78199768066406 -2.338000059127807 L -91 -2.400000095367431 L -81.91999816894531 -2.400000095367431 L -81.60299682617188 -2.400000095367431 L -78.39800262451172 -2.400000095367431 L -70.20099639892578 -2.400000095367431 L -66.5009994506836 -2.400000095367431 L -65.53600311279297 -2.400000095367431 L -60 -2.400000095367431 L -43.000999450683594 -2.400000095367431 L -43 -2.400000095367431 L -37.69499969482422 -2.400000095367431 L -32.768001556396484 -2.400000095367431 L -30.799999237060547 -2.400000095367431 L -30.054367065429688 -2.3408832550048824 L -30.01799964904785 -2.338000059127807 L -29.350374221801758 -2.1778750419616695 L -29.295124053955078 -2.1650817394256587 L -29.263999938964844 -2.157875061035156 L -28.62962532043457 -1.89537501335144 L -28.530000686645508 -1.8550000190734859 L -27.861000061035156 -1.445000052452087 L -27.263999938964844 -0.9359999895095822 L -27.23349380493164 -0.9029022455215451 L -27.19178581237793 -0.8459281325340268 L -26.57771873474121 1.1102230246251565e-16 L -26.37599754333496 0.2778885960578919 L -26.344999313354492 0.3300000131130219 L -25.913524627685547 1.6592630147933956 L -25.891969680786133 1.7091200351715083 L -25.86199951171875 1.817999958992004 L -25.805145263671875 2.5350930690765376 L -25.800891876220703 2.5743684768676753 L -25.799999237060547 2.5985386371612544 L -25.799999237060547 2.599999904632568 L -25.799999237060547 2.801000118255615 L -28.75286865234375 2.801000118255615 L -28.75286865234375 5.796999931335448 L -25.799999237060547 5.796999931335448 L -25.799999237060547 8.19200038909912 L -25.799999237060547 8.802000045776365 L -28.75286865234375 8.802000045776365 L -28.75286865234375 11.798000335693358 L -25.799999237060547 11.798000335693358 L -25.799999237060547 14.803000450134274 L -28.75286865234375 14.803000450134274 L -28.75286865234375 15.970459938049313 L -28.753000259399414 16.160568237304684 L -28.753000259399414 16.38400077819824 L -28.753000259399414 17.463222503662106 L -28.752918243408203 17.79899978637695 L -28.75286865234375 17.79899978637695 L -25.799999237060547 17.79899978637695 L -25.799999237060547 18.00146102905273 L -25.800891876220703 18.02563095092773 L -25.80559730529785 18.06782531738281 L -25.875247955322266 18.86332321166992 L -25.883960723876953 18.90423774719238 L -25.906415939331055 18.97198677062988 L -26.25644302368164 20.028041839599606 L -26.28310203552246 20.100652694702145 L -26.334346771240234 20.19291305541992 L -26.940353393554688 21.17545890808105 L -27.026227951049805 21.271924972534176 L -27.27652359008789 21.522220611572262 L -27.326143264770508 21.571838378906246 L -27.56757926940918 21.81327629089355 L -27.790557861328125 21.96942329406738 L -27.90057373046875 22.04646492004394 L -28.19505500793457 22.252685546874996 L -28.32403564453125 22.342576980590817 L -28.398725509643555 22.375988006591793 L -28.4375 22.38875007629394 L -29.86549949645996 22.908500671386715 L -29.93199920654297 22.92399978637695 L -30.11158561706543 22.939723968505856 L -30.799999237060547 22.999999999999996 L -32.768001556396484 22.999999999999996 L -37.69499969482422 22.999999999999996 L -39.144493103027344 22.999999999999996 L -40.36734390258789 22.999999999999996 L -41.04812240600586 22.999999999999996 L -41.32044219970703 22.999999999999996 L -42.27638626098633 22.999999999999996 L -43.000999450683594 22.999999999999996 L -43.6779899597168 22.999999999999996 L -44.476844787597656 22.999999999999996 L -44.83794021606445 22.999999999999996 L -44.86896514892578 22.999999999999996 L -65.53600311279297 22.999999999999996 L -66.5009994506836 22.999999999999996 L -70.20099639892578 22.999999999999996 L -81.60299682617188 22.999999999999996 L -81.91999816894531 22.999999999999996 L -90.11199951171875 22.999999999999996 L -91 22.999999999999996 L -91.86799621582031 22.92399978637695 L -92.70999908447266 22.69799995422363 L -93.5 22.32999992370605 L -93.70099639892578 22.189243316650387 L -94.12523651123047 21.892158508300778 L -94.21411895751953 21.82999992370605 L -94.21440887451172 21.82971382141113 L -94.7549057006836 21.28921318054199 L -94.8121566772461 21.23214530944824 L -94.8280029296875 21.21635246276855 L -94.82853698730469 21.215581893920895 L -95.26920318603516 20.58631324768066 L -95.3291244506836 20.501647949218746 L -95.8578872680664 19.04887008666992 L -95.8792953491211 19.006233215332028 L -95.89544677734375 18.96820259094238 L -95.92400360107422 18.868000030517575 L -95.92408752441406 18.866991043090817 L -95.99356842041016 18.073423385620114 L -95.99910736083984 18.02563095092773 L -96 18.00146102905273 L -96 17.999999999999996 L -96 17.79899978637695 L -93.70099639892578 17.79899978637695 L -93.00499725341797 17.79899978637695 L -93.00499725341797 16.38400077819824 L -93.00499725341797 14.803000450134274 L -93.70099639892578 14.803000450134274 L -96 14.803000450134274 L -96 11.798000335693358 L -93.70099639892578 11.798000335693358 L -93.00499725341797 11.798000335693358 L -93.00499725341797 8.802000045776365 L -93.70099639892578 8.802000045776365 L -96 8.802000045776365 L -96 8.19200038909912 L -96 5.796999931335448 L -93.70099639892578 5.796999931335448 L -93.00499725341797 5.796999931335448 L -93.00499725341797 2.801000118255615 L -93.70099639892578 2.801000118255615 L -96 2.801000118255615 L -96 2.5985386371612544 L -95.99910736083984 2.5743684768676753 L -95.9951171875 2.5363621711730953 L -95.93824768066406 1.8190758228301998 L -95.92469024658203 1.7596119642257686 L -95.9082260131836 1.7088861465454097 L -95.4869613647461 0.4110684096813202 L -95.47377014160156 0.3712714314460755 L -95.44731140136719 0.3159185349941254 L -95.21797943115234 1.1102230246251565e-16 L -94.62785339355469 -0.81294971704483 L -94.5943832397461 -0.867520987987518 M -66.75 -23.495000839233395 L -66.5009994506836 -23.320631027221676 L -65.67900085449219 -22.745000839233395 L -65.53600311279297 -22.60199928283691 L -64.75499725341797 -21.82099914550781 L -64.00499725341797 -20.749999999999996 L -63.45199966430664 -19.565000534057614 L -63.11399841308594 -18.302000045776364 L -63 -16.999999999999996 L -63 -16.38400077819824 L -63 -9.600000381469725 L -63 -6.499999999999998 L -66.5009994506836 -6.499999999999998 L -68 -6.499999999999998 L -68 -8.19200038909912 L -68 -8.499999999999998 L -68 -9.501999855041502 L -70.20099639892578 -9.501999855041502 L -73 -9.501999855041502 L -73 -8.499999999999998 L -73 -8.19200038909912 L -73 -6.499999999999998 L -78 -6.499999999999998 L -78 -9.600000381469725 L -78 -16.38400077819824 L -78 -16.999999999999996 L -77.88600158691406 -18.302000045776364 L -77.5479965209961 -19.565000534057614 L -76.99500274658203 -20.749999999999996 L -76.24500274658203 -21.82099914550781 L -75.32099914550781 -22.745000839233395 L -74.25 -23.495000839233395 L -73.72799682617188 -23.738599777221676 L -73.06500244140625 -24.048000335693352 L -71.802001953125 -24.385999679565423 L -70.5 -24.499999999999993 L -70.20099639892578 -24.47381973266601 L -69.63200378417969 -24.423999786376946 L -69.197998046875 -24.385999679565423 L -67.93499755859375 -24.048000335693352 L -66.75 -23.495000839233395 M -70.20099639892578 48.00099945068358 L -73.45500183105469 48.00099945068358 L -73.45500183105469 49.15200042724608 L -73.45500183105469 51.006000518798814 L -70.20099639892578 51.006000518798814 L -70.20099639892578 54.00099945068358 L -73.45500183105469 54.00099945068358 L -73.45500183105469 57.006000518798814 L -70.20099639892578 57.006000518798814 L -70.20099639892578 57.34400177001952 L -70.20099639892578 60.00099945068358 L -73.72799682617188 60.00099945068358 L -77.31886291503906 60.00099945068358 L -77.81858825683594 60.00099945068358 L -77.8239974975586 60.00099945068358 L -81.91999816894531 60.00099945068358 L -86.22383880615234 60.00099945068358 L -87.50299835205078 59.88899993896483 L -88.76599884033203 59.550998687744126 L -89.25299835205078 59.32373428344725 L -89.95099639892578 58.9980010986328 L -91.02100372314453 58.2480010986328 L -91.92597961425781 57.34400177001952 L -91.94599914550781 57.324001312255845 L -92.69599914550781 56.25299835205077 L -93.24800109863281 55.06800079345702 L -93.58699798583984 53.80500030517577 L -93.70099639892578 52.50299835205077 L -93.58699798583984 51.20100021362303 L -93.24800109863281 49.93799972534178 L -92.88186645507812 49.15200042724608 L -92.69599914550781 48.75299835205077 L -91.94599914550781 47.68199920654296 L -91.02100372314453 46.75799942016601 L -89.95099639892578 46.00799942016601 L -89.25299835205078 45.682266235351555 L -88.76599884033203 45.45500183105468 L -87.50299835205078 45.11700057983398 L -86.23526000976562 45.00600051879882 L -81.91999816894531 45.00600051879882 L -77.8239974975586 45.00600051879882 L -73.72799682617188 45.00600051879882 L -73.45500183105469 45.00600051879882 L -70.20099639892578 45.00600051879882 L -70.20099639892578 48.00099945068358 M -86.64359283447266 49.81792068481444 L -86.82282257080078 49.83370208740233 L -87.07833862304688 49.918247222900376 L -87.21434020996094 49.972160339355455 L -87.49408721923828 50.08304977416991 L -87.84491729736328 50.360839843749986 L -88.0741195678711 50.50212097167967 L -88.25335693359375 50.703525543212876 L -88.3445053100586 50.81889724731444 L -88.53052520751953 51.05435180664061 L -88.6959457397461 51.47010421752928 L -88.82369995117188 51.70682525634764 L -88.87818908691406 51.97060394287108 L -88.94305419921875 52.4127960205078 L -88.94310760498047 52.41319656372069 L -88.9168930053711 52.71158599853514 L -88.88570404052734 53.06779861450194 L -88.82001495361328 53.2480010986328 L -88.68157196044922 53.6277503967285 L -88.53052520751953 53.95164871215819 L -88.14723205566406 54.40859985351561 L -87.89435577392578 54.66147613525389 L -87.37809753417969 54.95924377441405 L -87.05419921875 55.11029815673827 L -86.4674072265625 55.213920593261705 L -86.31175994873047 55.236755371093736 L -86.20099639892578 55.25299835205077 L -85.75778198242188 55.18807983398436 L -85.57817077636719 55.172294616699205 L -85.32266235351562 55.08775329589842 L -85.18628692626953 55.03361129760741 L -84.90753936767578 54.92295074462889 L -84.55608367919922 54.645160675048814 L -84.32687377929688 54.50387573242186 L -84.14764404296875 54.30247497558592 L -83.9319839477539 54.029499053955064 L -83.87047576904297 53.95164871215819 L -83.7437515258789 53.68072128295897 L -83.61599731445312 53.44400024414061 L -83.57551574707031 53.2480010986328 L -83.47100067138672 52.74200057983397 L -83.4902572631836 52.08448410034178 L -83.49199676513672 52.02500152587889 L -83.69612884521484 51.465045928955064 L -83.72349548339844 51.382709503173814 L -83.78105163574219 51.2095375061035 L -84.16433715820312 50.75258636474608 L -84.26541900634766 50.608112335205064 L -84.36912536621094 50.45987701416014 L -84.74991607666016 50.225158691406236 L -84.96146392822266 50.057949066162095 L -85.21133422851562 49.95875167846678 L -85.54098510742188 49.84967803955077 L -85.63582611083984 49.818298339843736 L -85.93421936035156 49.79207611083983 L -86.09034729003906 49.76920700073241 L -86.20099639892578 49.75299835205077 L -86.64359283447266 49.81792068481444 M -28.11400032043457 -18.802000045776364 L -28 -17.499999999999996 L -28 -16.38400077819824 L -28 -10.005000114440916 L -28 -10.001999855041502 L -28 -8.999999999999998 L -28 -6.999999999999998 L -32.768001556396484 -6.999999999999998 L -33 -6.999999999999998 L -33 -8.999999999999998 L -33 -10.001999855041502 L -35.21109390258789 -10.001999855041502 L -38 -10.001999855041502 L -38 -8.999999999999998 L -38 -6.999999999999998 L -43 -6.999999999999998 L -43 -8.999999999999998 L -43 -10.001999855041502 L -43 -10.005000114440916 L -43 -13.499999999999996 L -43 -16.38400077819824 L -43 -17.499999999999996 L -42.88600158691406 -18.802000045776364 L -42.54800033569336 -20.065000534057614 L -41.994998931884766 -21.249999999999996 L -41.244998931884766 -22.32099914550781 L -40.959999084472656 -22.60600090026855 L -40.32099914550781 -23.245000839233395 L -39.25 -23.995000839233395 L -38.064998626708984 -24.548000335693352 L -37.96037292480469 -24.57600021362304 L -36.801998138427734 -24.885999679565423 L -35.5 -24.999999999999993 L -34.198001861572266 -24.885999679565423 L -33.03962707519531 -24.57600021362304 L -32.935001373291016 -24.548000335693352 L -32.768001556396484 -24.470066070556634 L -31.75 -23.995000839233395 L -30.679000854492188 -23.245000839233395 L -29.7549991607666 -22.32099914550781 L -29.0049991607666 -21.249999999999996 L -28.875558853149414 -20.97262573242187 L -28.45199966430664 -20.065000534057614 L -28.11400032043457 -18.802000045776364 M -45.11399841308594 -18.802000045776364 L -45 -17.499999999999996 L -45 -16.38400077819824 L -45 -10.005000114440916 L -45 -10.001999855041502 L -45 -8.999999999999998 L -45 -6.999999999999998 L -49.152000427246094 -6.999999999999998 L -50 -6.999999999999998 L -50 -8.999999999999998 L -50 -10.001999855041502 L -52.21109390258789 -10.001999855041502 L -55 -10.001999855041502 L -55 -8.999999999999998 L -55 -6.999999999999998 L -60 -6.999999999999998 L -60 -8.999999999999998 L -60 -9.600000381469725 L -60 -10.001999855041502 L -60 -10.005000114440916 L -60 -13.499999999999996 L -60 -16.38400077819824 L -60 -17.499999999999996 L -59.88600158691406 -18.802000045776364 L -59.54800033569336 -20.065000534057614 L -58.994998931884766 -21.249999999999996 L -58.244998931884766 -22.32099914550781 L -57.34400177001953 -23.22200012207031 L -57.32099914550781 -23.245000839233395 L -56.25 -23.995000839233395 L -55.064998626708984 -24.548000335693352 L -54.96037292480469 -24.57600021362304 L -53.801998138427734 -24.885999679565423 L -52.5 -24.999999999999993 L -51.198001861572266 -24.885999679565423 L -50.03962707519531 -24.57600021362304 L -49.935001373291016 -24.548000335693352 L -49.152000427246094 -24.182600021362298 L -48.75 -23.995000839233395 L -47.67900085449219 -23.245000839233395 L -46.755001068115234 -22.32099914550781 L -46.005001068115234 -21.249999999999996 L -45.87555694580078 -20.97262573242187 L -45.45199966430664 -20.065000534057614 L -45.11399841308594 -18.802000045776364 M -44.005001068115234 48.75199890136717 L -43.81867218017578 49.15200042724608 L -43.452999114990234 49.93700027465819 L -43.11399841308594 51.20000076293944 L -43.000999450683594 52.50199890136717 L -43.04204177856445 52.974880218505845 L -43.06574630737305 53.2480010986328 L -43.11399841308594 53.80400085449217 L -43.452999114990234 55.06700134277342 L -44.005001068115234 56.25199890136717 L -44.755001068115234 57.32300186157225 L -44.776023864746094 57.34400177001952 L -45.68000030517578 58.247001647949205 L -46.750999450683594 58.997001647949205 L -47.935001373291016 59.54999923706053 L -49.152000427246094 59.875690460205064 L -49.198001861572266 59.888000488281236 L -50.47814178466797 59.999999999999986 L -57.34400177001953 59.999999999999986 L -61.439998626708984 59.999999999999986 L -65.53600311279297 59.999999999999986 L -66.5009994506836 59.999999999999986 L -66.5009994506836 57.00500106811522 L -65.53600311279297 57.00500106811522 L -63.24700164794922 57.00500106811522 L -63.24700164794922 53.999999999999986 L -65.53600311279297 53.999999999999986 L -66.5009994506836 53.999999999999986 L -66.5009994506836 51.00500106811522 L -65.53600311279297 51.00500106811522 L -63.24700164794922 51.00500106811522 L -63.24700164794922 49.15200042724608 L -63.24700164794922 47.999999999999986 L -65.53600311279297 47.999999999999986 L -66.5009994506836 47.999999999999986 L -66.5009994506836 45.00500106811523 L -65.53600311279297 45.00500106811523 L -61.46678161621094 45.00500106811523 L -61.439998626708984 45.00500106811523 L -57.34400177001953 45.00500106811523 L -50.46670913696289 45.00500106811523 L -49.198001861572266 45.11600112915038 L -49.152000427246094 45.128311157226555 L -47.935001373291016 45.45399856567382 L -46.750999450683594 46.006999969482415 L -45.68000030517578 46.756999969482415 L -44.755001068115234 47.68099975585937 L -44.005001068115234 48.75199890136717 M -50.05778121948242 55.1870765686035 L -49.878173828125 55.17129516601561 L -49.62266540527344 55.08675384521483 L -49.48628616333008 55.032611846923814 L -49.20753860473633 54.9219512939453 L -49.152000427246094 54.878051757812486 L -48.85608673095703 54.64416122436522 L -48.62687683105469 54.50287628173827 L -48.4476432800293 54.30147552490233 L -48.35649490356445 54.18610382080077 L -48.17047882080078 53.95064544677733 L -48.00505065917969 53.53489685058592 L -47.877296447753906 53.298175811767564 L -47.8669319152832 53.2480010986328 L -47.822811126708984 53.034397125244126 L -47.758514404296875 52.59180450439452 L -47.78411102294922 52.2934112548828 L -47.8152961730957 51.93720245361327 L -48.01942443847656 51.377250671386705 L -48.17047882080078 51.05335235595702 L -48.553768157958984 50.596401214599595 L -48.80664825439453 50.34352111816405 L -49.152000427246094 50.14432907104491 L -49.32290267944336 50.04575347900389 L -49.64679718017578 49.89470291137694 L -50.23421859741211 49.791076660156236 L -50.39034652709961 49.768207550048814 L -50.500999450683594 49.75199890136717 L -50.9435920715332 49.816921234130845 L -51.122825622558594 49.832702636718736 L -51.37833786010742 49.91724777221678 L -51.51434326171875 49.97116088867186 L -51.79408645629883 50.082050323486314 L -52.14491653442383 50.35984039306639 L -52.374122619628906 50.50112152099608 L -52.5533561706543 50.70252609252928 L -52.76901626586914 50.97550201416014 L -52.83052062988281 51.05335235595702 L -52.957244873046875 51.32427597045897 L -53.084999084472656 51.561000823974595 L -53.22999954223633 52.263000488281236 L -53.21074295043945 52.92051315307616 L -53.20899963378906 52.979999542236314 L -53.11130142211914 53.2480010986328 L -53.0048713684082 53.539951324462876 L -52.97750473022461 53.622287750244126 L -52.919952392578125 53.795463562011705 L -52.53666305541992 54.252414703369126 L -52.43665313720703 54.395359039306626 L -52.331878662109375 54.545124053955064 L -51.95108413696289 54.77984237670897 L -51.73991394042969 54.947048187255845 L -51.489662170410156 55.04624557495116 L -51.15996170043945 55.1553382873535 L -51.0651741027832 55.18670272827147 L -50.76740646362305 55.21292114257811 L -50.61175537109375 55.235752105712876 L -50.500999450683594 55.25199890136717 L -50.05778121948242 55.1870765686035 M -70.02200317382812 -19.708000183105465 L -70.20099639892578 -19.723728179931637 L -70.5 -19.749999999999996 L -70.97799682617188 -19.708000183105465 L -71.44100189208984 -19.58399963378906 L -71.875 -19.38199996948242 L -72.26799774169922 -19.107000350952145 L -72.60700225830078 -18.767999649047848 L -72.88200378417969 -18.374999999999996 L -73.08399963378906 -17.940999984741207 L -73.20800018310547 -17.478000640869137 L -73.25 -16.999999999999996 L -73.20800018310547 -16.521999359130856 L -73.1710433959961 -16.38400077819824 L -73.08399963378906 -16.059000015258786 L -72.88200378417969 -15.624999999999996 L -72.60700225830078 -15.232000350952145 L -72.26799774169922 -14.892999649047848 L -71.875 -14.618000030517575 L -71.44100189208984 -14.416000366210934 L -70.97799682617188 -14.291999816894528 L -70.5 -14.249999999999996 L -70.20099639892578 -14.276271820068356 L -70.02200317382812 -14.291999816894528 L -69.63200378417969 -14.39644908905029 L -69.55899810791016 -14.416000366210934 L -69.125 -14.618000030517575 L -68.73200225830078 -14.892999649047848 L -68.39299774169922 -15.232000350952145 L -68.11799621582031 -15.624999999999996 L -67.91600036621094 -16.059000015258786 L -67.8289566040039 -16.38400077819824 L -67.79199981689453 -16.521999359130856 L -67.75 -16.999999999999996 L -67.79199981689453 -17.478000640869137 L -67.91600036621094 -17.940999984741207 L -68.11799621582031 -18.374999999999996 L -68.39299774169922 -18.767999649047848 L -68.73200225830078 -19.107000350952145 L -69.125 -19.38199996948242 L -69.55899810791016 -19.58399963378906 L -69.63200378417969 -19.603549957275387 L -70.02200317382812 -19.708000183105465 M -88.97799682617188 -19.708000183105465 L -89.44100189208984 -19.58399963378906 L -89.875 -19.38199996948242 L -90.11199951171875 -19.216159820556637 L -90.26799774169922 -19.107000350952145 L -90.60700225830078 -18.767999649047848 L -90.88200378417969 -18.374999999999996 L -91.08399963378906 -17.940999984741207 L -91.20800018310547 -17.478000640869137 L -91.25 -16.999999999999996 L -91.20800018310547 -16.521999359130856 L -91.1710433959961 -16.38400077819824 L -91.08399963378906 -16.059000015258786 L -90.88200378417969 -15.624999999999996 L -90.60700225830078 -15.232000350952145 L -90.26799774169922 -14.892999649047848 L -90.11199951171875 -14.78383922576904 L -89.875 -14.618000030517575 L -89.44100189208984 -14.416000366210934 L -88.97799682617188 -14.291999816894528 L -88.5 -14.249999999999996 L -88.02200317382812 -14.291999816894528 L -87.55899810791016 -14.416000366210934 L -87.125 -14.618000030517575 L -86.73200225830078 -14.892999649047848 L -86.39299774169922 -15.232000350952145 L -86.11799621582031 -15.624999999999996 L -86.01599884033203 -15.844148635864254 L -85.91600036621094 -16.059000015258786 L -85.8289566040039 -16.38400077819824 L -85.79199981689453 -16.521999359130856 L -85.75 -16.999999999999996 L -85.79199981689453 -17.478000640869137 L -85.91600036621094 -17.940999984741207 L -86.01599884033203 -18.15585136413574 L -86.11799621582031 -18.374999999999996 L -86.39299774169922 -18.767999649047848 L -86.73200225830078 -19.107000350952145 L -87.125 -19.38199996948242 L -87.55899810791016 -19.58399963378906 L -88.02200317382812 -19.708000183105465 L -88.5 -19.749999999999996 L -88.97799682617188 -19.708000183105465 M -81.01699829101562 11.538999557495115 L -80.89600372314453 11.627606391906737 L -80.88999938964844 11.63199996948242 L -80.75499725341797 11.713000297546385 L -80.61299896240234 11.7810001373291 L -80.46499633789062 11.833000183105467 L -80.31300354003906 11.871999740600584 L -80.15699768066406 11.89500045776367 L -80 11.902999877929686 L -79.87200164794922 11.896477699279783 L -79.84300231933594 11.89500045776367 L -79.68699645996094 11.871999740600584 L -79.53500366210938 11.833000183105467 L -79.38700103759766 11.7810001373291 L -79.24500274658203 11.713000297546385 L -79.11000061035156 11.63199996948242 L -78.98300170898438 11.538999557495115 L -78.86699676513672 11.432999610900877 L -78.76100158691406 11.31700038909912 L -78.7221908569336 11.263999938964842 L -78.66799926757812 11.189999580383299 L -78.58699798583984 11.05500030517578 L -78.51899719238281 10.913000106811522 L -78.46700286865234 10.765000343322752 L -78.4280014038086 10.612999916076658 L -78.40499877929688 10.456999778747557 L -78.39800262451172 10.300000190734862 L -78.40067291259766 10.239999771118162 L -78.40499877929688 10.14299964904785 L -78.4280014038086 9.987000465393065 L -78.46700286865234 9.83500003814697 L -78.51899719238281 9.687000274658201 L -78.58699798583984 9.545000076293944 L -78.66799926757812 9.409999847412108 L -78.76100158691406 9.282999992370604 L -78.82222747802734 9.215999603271483 L -78.86699676513672 9.16699981689453 L -78.98300170898438 9.060999870300291 L -79.11000061035156 8.968000411987303 L -79.24500274658203 8.887000083923338 L -79.38700103759766 8.819000244140623 L -79.53500366210938 8.767000198364256 L -79.68699645996094 8.727999687194822 L -79.84300231933594 8.704999923706053 L -79.87200164794922 8.703706741333006 L -80 8.697999954223631 L -80.15699768066406 8.704999923706053 L -80.31300354003906 8.727999687194822 L -80.46499633789062 8.767000198364256 L -80.61299896240234 8.819000244140623 L -80.75499725341797 8.887000083923338 L -80.88999938964844 8.968000411987303 L -80.89600372314453 8.972393989562987 L -81.01699829101562 9.060999870300291 L -81.13300323486328 9.16699981689453 L -81.23899841308594 9.282999992370604 L -81.33200073242188 9.409999847412108 L -81.41300201416016 9.545000076293944 L -81.48100280761719 9.687000274658201 L -81.53399658203125 9.83500003814697 L -81.5719985961914 9.987000465393065 L -81.59500122070312 10.14299964904785 L -81.59994506835938 10.239999771118162 L -81.60299682617188 10.300000190734862 L -81.59500122070312 10.456999778747557 L -81.5719985961914 10.612999916076658 L -81.53399658203125 10.765000343322752 L -81.48100280761719 10.913000106811522 L -81.41300201416016 11.05500030517578 L -81.33200073242188 11.189999580383299 L -81.23899841308594 11.31700038909912 L -81.13300323486328 11.432999610900877 L -81.01699829101562 11.538999557495115 M -37.808998107910156 -21.499999999999996 L -38.398048400878906 -20.479999542236325 L -40.11899948120117 -17.499999999999996 L -39.474510192871094 -16.38400077819824 L -37.808998107910156 -13.499999999999996 L -33.191001892089844 -13.499999999999996 L -32.768001556396484 -14.232467651367184 L -31.525489807128906 -16.38400077819824 L -30.881000518798828 -17.499999999999996 L -32.768001556396484 -20.76753234863281 L -33.191001892089844 -21.499999999999996 L -36.86399841308594 -21.499999999999996 L -37.808998107910156 -21.499999999999996 M -41.22800064086914 14.112999916076657 L -41.796695709228516 16.38400077819824 L -41.82000732421875 16.477096557617184 L -41.81770706176758 16.482652664184567 L -41.69049835205078 16.789752960205075 L -41.46855926513672 17.32554244995117 L -41.166866302490234 18.05386924743652 L -40.799617767333984 18.94046592712402 L -40.74300003051758 19.077148437499996 L -40.11850357055664 20.584772109985348 L -39.849998474121094 20.017000198364254 L -38.91400146484375 17.40200042724609 L -38.23899841308594 14.706999778747555 L -37.832000732421875 11.96000003814697 L -37.69499969482422 9.185999870300291 L -37.832000732421875 6.41200017929077 L -38.23899841308594 3.6640000343322745 L -38.91400146484375 0.9700000286102294 L -39.255794525146484 0.015092272311449158 L -40.74300003051758 2.100013732910156 L -41.06958770751953 2.557859897613525 L -41.409393310546875 3.0342319011688224 L -41.502140045166016 3.1642577648162833 L -41.22800064086914 4.258999824523925 L -40.8650016784668 6.710000038146971 L -40.74300003051758 9.185999870300291 L -40.8650016784668 11.661000251770018 L -41.22800064086914 14.112999916076657 M -54.808998107910156 -21.499999999999996 L -55.398048400878906 -20.479999542236325 L -57.11899948120117 -17.499999999999996 L -56.474510192871094 -16.38400077819824 L -54.808998107910156 -13.499999999999996 L -50.191001892089844 -13.499999999999996 L -49.152000427246094 -15.299134254455563 L -48.525489807128906 -16.38400077819824 L -47.88100051879883 -17.499999999999996 L -49.152000427246094 -19.700866699218746 L -49.601951599121094 -20.479999542236325 L -50.191001892089844 -21.499999999999996 L -53.24800109863281 -21.499999999999996 L -54.808998107910156 -21.499999999999996 z" fill="none" stroke="rgb(255,0,0)" stroke-width="0.001mm" />
</svg>